<svg width="0" height="0" class="hidden"><symbol fill="none" xmlns="http://www.w3.org/2000/svg" viewBox="0 0 24 24" id="film"><path d="M19.82 2H4.18A2.18 2.18 0 0 0 2 4.18v15.64A2.18 2.18 0 0 0 4.18 22h15.64A2.18 2.18 0 0 0 22 19.82V4.18A2.18 2.18 0 0 0 19.82 2ZM7 2v20M17 2v20M2 12h20M2 7h5M2 17h5m10 0h5M17 7h5" stroke="#fff" stroke-width="2" stroke-linecap="round" stroke-linejoin="round"/></symbol><symbol fill="none" xmlns="http://www.w3.org/2000/svg" viewBox="0 0 12 12" id="search"><path d="M5.5 9.5a4 4 0 1 0 0-8 4 4 0 0 0 0 8Zm5 1L8.325 8.325" stroke="#fff" stroke-linecap="round" stroke-linejoin="round"/></symbol></svg>