<svg width="0" height="0" class="hidden"><symbol fill="none" xmlns="http://www.w3.org/2000/svg" viewBox="0 0 24 24" id="film"><path d="M19.82 2H4.18A2.18 2.18 0 0 0 2 4.18v15.64A2.18 2.18 0 0 0 4.18 22h15.64A2.18 2.18 0 0 0 22 19.82V4.18A2.18 2.18 0 0 0 19.82 2ZM7 2v20M17 2v20M2 12h20M2 7h5M2 17h5m10 0h5M17 7h5" stroke="#fff" stroke-width="2" stroke-linecap="round" stroke-linejoin="round"/></symbol><symbol fill="none" xmlns="http://www.w3.org/2000/svg" viewBox="0 0 12 12" id="search"><path d="M5.5 9.5a4 4 0 1 0 0-8 4 4 0 0 0 0 8Zm5 1L8.325 8.325" stroke="#fff" stroke-linecap="round" stroke-linejoin="round"/></symbol><symbol id="icon-arrow-left" viewBox="0 0 32 32"><path stroke-linejoin="round" stroke-linecap="round" stroke-width="2.667" d="M25.333 16H6.666M16 25.334l-9.333-9.333L16 6.668"/></symbol><symbol id="icon-arrow-right" viewBox="0 0 32 32"><path stroke-linejoin="round" stroke-linecap="round" stroke-width="2.667" d="M6.667 16h18.667M16 25.334l9.333-9.333L16 6.668"/></symbol><symbol fill="none" id="icon-X" viewBox="0 0 32 32"><path d="M32 3.223 28.777 0 16 12.777 3.223 0 0 3.223 12.777 16 0 28.777 3.223 32 16 19.223 28.777 32 32 28.777 19.223 16 32 3.223z"/></symbol><symbol xmlns="http://www.w3.org/2000/svg" preserveAspectRatio="xMidYMid meet" viewBox="0 0 980 980" id="icon-scroll"><path d="M4560 9789c-1035-75-1998-463-2800-1128-150-123-501-475-622-621C604 7393 258 6668 96 5860c-259-1291 18-2648 761-3727 277-403 628-778 1018-1087C2555 507 3408 150 4275 41c1488-188 2966 303 4028 1338 427 416 739 843 992 1356 477 968 621 2065 409 3125-169 848-553 1624-1130 2280-112 128-386 398-509 501-763 642-1665 1026-2665 1134-174 19-664 27-840 14zm636-919c1198-94 2265-701 2961-1685 378-535 618-1165 699-1840 14-113 19-222 19-445 0-397-29-631-122-995-374-1467-1579-2607-3073-2908-483-98-1021-101-1500-11-1035 195-1927 768-2537 1629-360 508-608 1138-688 1748-51 396-44 846 21 1212 121 679 395 1282 828 1825 128 160 436 468 591 591 669 531 1409 822 2245 882 109 8 438 6 556-3z" transform="matrix(.1 0 0 -.1 0 980)"/><path d="M3085 6107c-104-35-212-119-262-205-88-149-83-340 11-486 19-28 419-472 890-986 603-659 874-947 916-977 174-122 408-108 567 35 81 72 1727 1878 1764 1934 82 128 93 301 26 440-45 93-128 175-224 221-65 30-74 32-188 32s-123-2-187-32c-37-17-88-51-114-75-26-23-347-369-713-768s-668-725-671-725-305 326-671 725-687 745-713 768c-26 24-77 58-114 75-60 28-78 32-172 34-67 2-120-2-145-10z" transform="matrix(.1 0 0 -.1 0 980)"/></symbol></svg>