<svg width="0" height="0" class="hidden">
	<symbol fill="none" xmlns="http://www.w3.org/2000/svg" viewBox="0 0 24 24" id="film">
		<path d="M19.82 2H4.18C2.976 2 2 2.976 2 4.18v15.64C2 21.024 2.976 22 4.18 22h15.64c1.204 0 2.18-.976 2.18-2.18V4.18C22 2.976 21.024 2 19.82 2ZM7 2v20M17 2v20M2 12h20M2 7h5M2 17h5M17 17h5M17 7h5" stroke="#fff" stroke-width="2" stroke-linecap="round" stroke-linejoin="round">
		</path>
	</symbol>
	<symbol fill="none" xmlns="http://www.w3.org/2000/svg" viewBox="0 0 12 12" id="search">
		<path d="M5.5 9.5c2.2091 0 4-1.7909 4-4 0-2.2091-1.7909-4-4-4-2.2091 0-4 1.7909-4 4 0 2.2091 1.7909 4 4 4ZM10.5 10.5002l-2.175-2.175" stroke="#fff" stroke-linecap="round" stroke-linejoin="round">
		</path>
	</symbol>
	<symbol id="icon-arrow-left" viewBox="0 0 32 32">
		<path stroke-linejoin="round" stroke-linecap="round" stroke-miterlimit="4" stroke-width="2.6667" d="M25.333 16h-18.667">
		</path>
		<path stroke-linejoin="round" stroke-linecap="round" stroke-miterlimit="4" stroke-width="2.6667" d="M16 25.334l-9.333-9.333 9.333-9.333">
		</path>
	</symbol>
	<symbol id="icon-arrow-right" viewBox="0 0 32 32">
		<path stroke-linejoin="round" stroke-linecap="round" stroke-miterlimit="4" stroke-width="2.6667" d="M6.667 16h18.667">
		</path>
		<path stroke-linejoin="round" stroke-linecap="round" stroke-miterlimit="4" stroke-width="2.6667" d="M16 25.334l9.333-9.333-9.333-9.333">
		</path>
	</symbol>
</svg>
