<svg width="0" height="0" class="hidden">
    <symbol fill="none" xmlns="http://www.w3.org/2000/svg" viewBox="0 0 24 24" id="film">
        <path d="M19.82 2H4.18C2.976 2 2 2.976 2 4.18v15.64C2 21.024 2.976 22 4.18 22h15.64c1.204 0 2.18-.976 2.18-2.18V4.18C22 2.976 21.024 2 19.82 2ZM7 2v20M17 2v20M2 12h20M2 7h5M2 17h5M17 17h5M17 7h5" stroke="#fff" stroke-width="2" stroke-linecap="round" stroke-linejoin="round">
		</path>
    </symbol>
    <symbol fill="none" xmlns="http://www.w3.org/2000/svg" viewBox="0 0 12 12" id="search">
        <path d="M5.5 9.5c2.2091 0 4-1.7909 4-4 0-2.2091-1.7909-4-4-4-2.2091 0-4 1.7909-4 4 0 2.2091 1.7909 4 4 4ZM10.5 10.5002l-2.175-2.175" stroke="#fff" stroke-linecap="round" stroke-linejoin="round">
		</path>
    </symbol>
    <symbol id="icon-arrow-left" viewBox="0 0 32 32">
        <path stroke-linejoin="round" stroke-linecap="round" stroke-miterlimit="4" stroke-width="2.6667" d="M25.333 16h-18.667">
		</path>
        <path stroke-linejoin="round" stroke-linecap="round" stroke-miterlimit="4" stroke-width="2.6667" d="M16 25.334l-9.333-9.333 9.333-9.333">
		</path>
    </symbol>
    <symbol id="icon-arrow-right" viewBox="0 0 32 32">
        <path stroke-linejoin="round" stroke-linecap="round" stroke-miterlimit="4" stroke-width="2.6667" d="M6.667 16h18.667">
		</path>
        <path stroke-linejoin="round" stroke-linecap="round" stroke-miterlimit="4" stroke-width="2.6667" d="M16 25.334l9.333-9.333-9.333-9.333">
		</path>
    </symbol>
    <symbol fill="none" id="icon-X" viewBox="0 0 32 32">
        <path d="M32 3.223l-3.223-3.223-12.777 12.777-12.777-12.777-3.223 3.223 12.777 12.777-12.777 12.777 3.223 3.223 12.777-12.777 12.777 12.777 3.223-3.223-12.777-12.777 12.777-12.777z">
		</path>
    </symbol>
    <!-- <symbol version="1.0" xmlns="http://www.w3.org/2000/svg" viewBox="0 0 200 200" id="icon-scroll">
        <path d="M92 59.3c-4.9 1.6-13.3 10.2-14.8 15.3-1.6 5.6-1.6 45.2 0 50.8 1.6 5.5 9.9 13.8 15.4 15.4 9.4 2.8 16.9.8 23.9-6.3 7-6.9 7.5-9.2 7.5-34.5s-.5-27.6-7.5-34.5c-7-7.1-15.2-9.1-24.5-6.2zm19 6.1c2.1 1.3 4.8 4.2 6.1 6.3 2.4 3.7 2.4 4.3 2.4 28.4v24.5l-2.7 4.1c-4.1 6.2-9 8.8-16.8 8.8-7.8 0-12.7-2.6-16.8-8.8-2.7-4-2.7-4.1-3-26.3-.2-14.2.1-23.7.8-26.3 1.3-5 7.5-11.6 12.2-13 5.3-1.6 13.5-.6 17.8 2.3z"></path>
        <path d="M98.4 71.3c-1.1 2.9 0 10.2 1.6 10.2 1.9 0 2.2-10.6.3-11.2-.7-.3-1.6.2-1.9 1zM86.3 153.6c-.4 1.1 1.6 3.8 6.5 8.7l7.2 7.2 7-7c3.8-3.8 7-7.5 7-8.2 0-3-2.5-2-8 3.3l-6 5.7-5.9-5.6c-3.3-3.2-6.2-5.7-6.6-5.7-.3 0-.8.7-1.2 1.6z"></path>
    </symbol> -->
    <symbol version="1.0" xmlns="http://www.w3.org/2000/svg" preserveAspectRatio="xMidYMid meet" viewBox="0 0 980.000000 980.000000" id="icon-scroll">
        <g transform="translate(0.000000,980.000000) scale(0.100000,-0.100000)" stroke="none">
            <path d="M4560 9789 c-1035 -75 -1998 -463 -2800 -1128 -150 -123 -501 -475
-622 -621 -534 -647 -880 -1372 -1042 -2180 -259 -1291 18 -2648 761 -3727
277 -403 628 -778 1018 -1087 680 -539 1533 -896 2400 -1005 1488 -188 2966
303 4028 1338 427 416 739 843 992 1356 477 968 621 2065 409 3125 -169 848
-553 1624 -1130 2280 -112 128 -386 398 -509 501 -763 642 -1665 1026 -2665
1134 -174 19 -664 27 -840 14z m636 -919 c1198 -94 2265 -701 2961 -1685 378
-535 618 -1165 699 -1840 14 -113 19 -222 19 -445 0 -397 -29 -631 -122 -995
-374 -1467 -1579 -2607 -3073 -2908 -483 -98 -1021 -101 -1500 -11 -1035 195
-1927 768 -2537 1629 -360 508 -608 1138 -688 1748 -51 396 -44 846 21 1212
121 679 395 1282 828 1825 128 160 436 468 591 591 669 531 1409 822 2245 882
109 8 438 6 556 -3z"></path>
            <path d="M3085 6107 c-104 -35 -212 -119 -262 -205 -88 -149 -83 -340 11 -486
19 -28 419 -472 890 -986 603 -659 874 -947 916 -977 174 -122 408 -108 567
35 81 72 1727 1878 1764 1934 82 128 93 301 26 440 -45 93 -128 175 -224 221
-65 30 -74 32 -188 32 -114 0 -123 -2 -187 -32 -37 -17 -88 -51 -114 -75 -26
-23 -347 -369 -713 -768 -366 -399 -668 -725 -671 -725 -3 0 -305 326 -671
725 -366 399 -687 745 -713 768 -26 24 -77 58 -114 75 -60 28 -78 32 -172 34
-67 2 -120 -2 -145 -10z"></path>
        </g>
    </symbol>
</svg>